<svg xmlns="http://www.w3.org/2000/svg" width="272.86614990234375" height="254.26141357421875" viewBox="-88.46672821044922 -150.4146728515625 272.86614990234375 254.26141357421875"><title>Neo4j Graph Visualization</title><desc>Created using Neo4j (http://www.neo4j.com/)</desc><g class="layer relationships"><g class="relationship" transform="translate(15.042343136214182 74.84673245496099) rotate(299.21185293727564)"><path class="b-outline" fill="#A5ABB6" stroke="none" d="M 24.018736134675446,-6.953439040707552 L 24.277555179777966,-5.987513214418485 A 182.13448342732838 182.13448342732838 0 0 1 50.202117756049475,-10.953779102960908 L 50.085636186467426,-11.946971956312012 A 183.13448342732838 183.13448342732838 0 0 0 24.018736134675446,-6.953439040707552 Z M 88.41744445398794,-12.40284894164057 L 88.32461640830722,-11.407166786565426 A 182.13448342732838 182.13448342732838 0 0 1 114.35995646879867,-7.058855668293614 L 113.65263525098129,-4.143431737743317 L 121.28049917638559,-5.894343481811459 L 115.3030514258885,-10.94608757569401 L 114.59573020807112,-8.030663645143713 A 183.13448342732838 183.13448342732838 0 0 0 88.41744445398794,-12.40284894164057"/><text text-anchor="middle" pointer-events="none" font-size="8px" fill="#000000" x="69.24552523856474" y="-9.680680567753996" font-family="Helvetica Neue, Helvetica, Arial, sans-serif">SERVES</text></g><g class="relationship" transform="translate(86.08914092852675 -52.21481383520751) rotate(538.4859285256848)"><path class="b-outline" fill="#A5ABB6" stroke="none" d="M 24.018736134675446,-6.953439040707552 L 24.277555179777966,-5.987513214418485 A 182.19551481552 182.19551481552 0 0 1 40.5788179600778,-9.564107474586876 L 40.40947017773828,-10.54966382945284 A 183.19551481552 183.19551481552 0 0 0 24.018736134675446,-6.953439040707552 Z M 98.15516792740429,-11.236288812794925 L 98.00930221880317,-10.24698441320183 A 182.19551481552 182.19551481552 0 0 1 114.39099911392175,-7.059006751623862 L 113.6836637855336,-4.143586244524755 L 121.31153618521769,-5.894461069901333 L 115.33411288510597,-10.946234094422671 L 114.62677755671781,-8.030813587323564 A 183.19551481552 183.19551481552 0 0 0 98.15516792740429,-11.236288812794925"/><text text-anchor="middle" pointer-events="none" font-size="8px" fill="#000000" x="69.26103762392512" y="-9.682761103350344" transform="rotate(180 69.26103762392512 -12.682761103350344)" font-family="Helvetica Neue, Helvetica, Arial, sans-serif">SUBJECT_TO</text></g><g class="relationship" transform="translate(86.08914092852675 -52.21481383520751) rotate(188.72790332954838)"><path class="b-outline" fill="#A5ABB6" stroke="none" d="M 6.953439040707552 24.018736134675446 L 17.306200844808384 62.65576918623819 A 17.916697508022974 17.916697508022974 0 1 1 -17.306200844808384 62.65576918623819 L -8.765172356425198 30.780216918698923 L -4.901469051268926 31.815493099109005 L -6.4704761275630185 24.148145657226706 L -11.662949835292403 30.00375978339136 L -7.79924653013613 31.039035963801442 L -16.340275018519314 62.91458823134071 A 16.916697508022974 16.916697508022974 0 1 0 16.340275018519314 62.91458823134071 L 5.987513214418485 24.277555179777966 Z"/><text text-anchor="middle" pointer-events="none" font-size="8px" fill="#000000" x="0" y="94.20964923467838" transform="rotate(180 0 91.20964923467838)" font-family="Helvetica Neue, Helvetica, Arial, sans-serif">SUBDOM…</text></g><g class="relationship" transform="translate(15.042343136214182 74.84673245496099) rotate(238.8381662632891)"><path class="b-outline" fill="#A5ABB6" stroke="none" d="M 21.40063509461097,-12.933012701892217 L 21.90063509461097,-12.06698729810778 A 97.41853778989464 97.41853778989464 0 0 1 46.39195739361434,-22.060339440807653 L 46.14336049259971,-23.028946471964204 A 98.41853778989464 98.41853778989464 0 0 0 21.40063509461097,-12.933012701892217 Z M 90.60514737217281,-24.066021761387745 L 90.40198195403481,-23.086877332371884 A 97.41853778989464 97.41853778989464 0 0 1 115.33260747639446,-14.246296691625863 L 113.95537359971821,-11.581108734101047 L 121.78091835673175,-11.476948972302079 L 117.1689193119628,-17.799880634992284 L 115.79168543528655,-15.134692677467468 A 98.41853778989464 98.41853778989464 0 0 0 90.60514737217281,-24.066021761387745"/><text text-anchor="middle" pointer-events="none" font-size="8px" fill="#000000" x="68.3265660949921" y="-22.591970649708188" transform="rotate(180 68.3265660949921 -25.591970649708188)" font-family="Helvetica Neue, Helvetica, Arial, sans-serif">RETURNS</text></g><g class="relationship" transform="translate(86.08914092852675 -52.21481383520751) rotate(479.21185293727564)"><path class="b-outline" fill="#A5ABB6" stroke="none" d="M 24.018736134675446,-6.953439040707552 L 24.277555179777966,-5.987513214418485 A 182.13448342732838 182.13448342732838 0 0 1 45.14318168283084,-10.288504589312709 L 44.99892428531099,-11.278044787213105 A 183.13448342732838 183.13448342732838 0 0 0 24.018736134675446,-6.953439040707552 Z M 93.51862635419788,-11.85508554025651 L 93.39794346761148,-10.8623944297467 A 182.13448342732838 182.13448342732838 0 0 1 114.35995646879867,-7.058855668293614 L 113.65263525098129,-4.143431737743317 L 121.28049917638559,-5.894343481811459 L 115.3030514258885,-10.94608757569401 L 114.59573020807112,-8.030663645143713 A 183.13448342732838 183.13448342732838 0 0 0 93.51862635419788,-11.85508554025651"/><text text-anchor="middle" pointer-events="none" font-size="8px" fill="#000000" x="69.24552523856474" y="-9.680680567753996" transform="rotate(180 69.24552523856474 -12.680680567753996)" font-family="Helvetica Neue, Helvetica, Arial, sans-serif">RESOLVES</text></g><g class="relationship" transform="translate(-59.46672988808717 -48.3675268909714) rotate(418.8381662632891)"><path class="b-outline" fill="#A5ABB6" stroke="none" d="M 25 0.5 L 37.12874220756268 0.5 L 37.12874220756268 -0.5 L 25 -0.5 Z M 99.86207579520917 0.5 L 111.99081800277185 0.5 L 111.99081800277185 3.5 L 118.99081800277185 0 L 111.99081800277185 -3.5 L 111.99081800277185 -0.5 L 99.86207579520917 -0.5 Z"/><text text-anchor="middle" pointer-events="none" font-size="8px" fill="#000000" x="68.49540900138592" y="3" font-family="Helvetica Neue, Helvetica, Arial, sans-serif">ASSIGNED_TO</text></g><g class="relationship" transform="translate(-59.46672988808717 -48.3675268909714) rotate(358.4859285256848)"><path class="b-outline" fill="#A5ABB6" stroke="none" d="M 24.018736134675446,-6.953439040707552 L 24.277555179777966,-5.987513214418485 A 182.19551481552 182.19551481552 0 0 1 46.04708206239099,-10.418422396237759 L 45.90774744534728,-11.40866775194172 A 183.19551481552 183.19551481552 0 0 0 24.018736134675446,-6.953439040707552 Z M 92.63802009821347,-11.96431386814146 L 92.52227056267886,-10.971035435362666 A 182.19551481552 182.19551481552 0 0 1 114.39099911392175,-7.059006751623862 L 113.6836637855336,-4.143586244524755 L 121.31153618521769,-5.894461069901333 L 115.33411288510597,-10.946234094422671 L 114.62677755671781,-8.030813587323564 A 183.19551481552 183.19551481552 0 0 0 92.63802009821347,-11.96431386814146"/><text text-anchor="middle" pointer-events="none" font-size="8px" fill="#000000" x="69.26103762392512" y="-9.682761103350344" font-family="Helvetica Neue, Helvetica, Arial, sans-serif">CONTAINS</text></g><g class="relationship" transform="translate(-59.46672988808717 -48.3675268909714) rotate(418.8381662632891)"><path class="b-outline" fill="#A5ABB6" stroke="none" d="M 21.40063509461097,-12.933012701892217 L 21.90063509461097,-12.06698729810778 A 97.41853778989464 97.41853778989464 0 0 1 45.38152577978495,-21.795225694241566 L 45.12255681163862,-22.76111133630134 A 98.41853778989464 98.41853778989464 0 0 0 21.40063509461097,-12.933012701892217 Z M 91.63732866485789,-23.846072690032045 L 91.42367557523173,-22.869163094781186 A 97.41853778989464 97.41853778989464 0 0 1 115.33260747639446,-14.246296691625863 L 113.95537359971821,-11.581108734101047 L 121.78091835673175,-11.476948972302079 L 117.1689193119628,-17.799880634992284 L 115.79168543528655,-15.134692677467468 A 98.41853778989464 98.41853778989464 0 0 0 91.63732866485789,-23.846072690032045"/><text text-anchor="middle" pointer-events="none" font-size="8px" fill="#000000" x="68.3265660949921" y="-22.591970649708188" font-family="Helvetica Neue, Helvetica, Arial, sans-serif">CONTAINS</text></g><g class="relationship" transform="translate(86.08914092852675 -52.21481383520751) rotate(288.96987813341195)"><path class="b-outline" fill="#A5ABB6" stroke="none" d="M 6.953439040707552 24.018736134675446 L 17.306200844808384 62.65576918623819 A 17.916697508022974 17.916697508022974 0 1 1 -17.306200844808384 62.65576918623819 L -8.765172356425198 30.780216918698923 L -4.901469051268926 31.815493099109005 L -6.4704761275630185 24.148145657226706 L -11.662949835292403 30.00375978339136 L -7.79924653013613 31.039035963801442 L -16.340275018519314 62.91458823134071 A 16.916697508022974 16.916697508022974 0 1 0 16.340275018519314 62.91458823134071 L 5.987513214418485 24.277555179777966 Z"/><text text-anchor="middle" pointer-events="none" font-size="8px" fill="#000000" x="0" y="94.20964923467838" font-family="Helvetica Neue, Helvetica, Arial, sans-serif">REDIRECTS</text></g></g><g class="layer nodes"><g class="node" aria-label="graph-node-1" transform="translate(15.042343136214182,74.84673245496099)"><circle class="b-outline" cx="0" cy="0" r="25" fill="#D9C8AE" stroke="#c0a378" stroke-width="2px"/><text class="caption" text-anchor="middle" pointer-events="none" x="0" y="5" font-size="10px" fill="#2A2C34" font-family="Helvetica Neue, Helvetica, Arial, sans-serif"> IP</text></g><g class="node" aria-label="graph-node-2" transform="translate(86.08914092852675,-52.21481383520751)"><circle class="b-outline" cx="0" cy="0" r="25" fill="#57C7E3" stroke="#23b3d7" stroke-width="2px"/><text class="caption" text-anchor="middle" pointer-events="none" x="0" y="5" font-size="10px" fill="#2A2C34" font-family="Helvetica Neue, Helvetica, Arial, sans-serif"> Domain</text></g><g class="node" aria-label="graph-node-3" transform="translate(-59.46672988808717,-48.3675268909714)"><circle class="b-outline" cx="0" cy="0" r="25" fill="#4C8EDA" stroke="#2870c2" stroke-width="2px"/><text class="caption" text-anchor="middle" pointer-events="none" x="0" y="5" font-size="10px" fill="#FFFFFF" font-family="Helvetica Neue, Helvetica, Arial, sans-serif"> Certificate</text></g></g></svg>